<svg width="81" height="81" viewBox="0 0 81 81" fill="none" xmlns="http://www.w3.org/2000/svg">
<path d="M14.4611 0.0467961C15.2994 0.00306329 15.8995 0.435532 16.4462 0.982193C17.9429 2.48126 19.442 3.97789 20.9387 5.47696C27.0274 11.568 33.1162 17.659 39.2098 23.7476C40.3323 24.8676 40.138 24.8846 41.2459 23.7767C48.6758 16.347 56.1058 8.91484 63.5357 1.48512C63.7714 1.24945 64.0022 1.00649 64.2525 0.782966C65.3944 -0.244756 66.7599 -0.2812 67.8508 0.795114C71.8015 4.68734 75.7376 8.59657 79.6493 12.5277C80.7476 13.6307 80.7233 15.0229 79.7052 16.2085C79.4525 16.5049 79.1707 16.777 78.8937 17.0516C71.4443 24.5032 63.9974 31.9548 56.548 39.4063C55.9908 39.9635 55.9932 40.5232 56.5553 41.0852C64.0824 48.6145 71.612 56.1439 79.1367 63.6781C79.4501 63.9915 79.7757 64.3098 80.0211 64.6766C80.7403 65.7481 80.5799 67.0188 79.5254 68.0854C76.3863 71.2511 73.218 74.3902 70.0594 77.539C69.3694 78.2265 68.6769 78.9165 67.9723 79.592C66.7745 80.7363 65.5086 80.7655 64.2501 79.6819C63.9755 79.4462 63.7228 79.1838 63.4677 78.9287C55.9989 71.4601 48.5301 63.9891 41.0588 56.518C40.5162 55.9754 39.9752 55.973 39.4358 56.5107C31.9475 64.0012 24.4568 71.4917 16.9686 78.9797C16.7523 79.1959 16.5385 79.417 16.3077 79.6211C14.9908 80.7849 13.7225 80.7655 12.4615 79.5385C10.8652 77.9811 9.28107 76.4116 7.70178 74.8397C5.46891 72.619 3.23604 70.3959 1.02017 68.1583C-0.335586 66.7928 -0.328297 65.3666 1.04204 63.9891C4.77888 60.2378 8.52787 56.4962 12.2744 52.7522C16.1765 48.8502 20.081 44.9483 23.983 41.0463C24.5159 40.5134 24.5087 39.9716 23.9612 39.4209C16.4122 31.8722 8.86317 24.3258 1.31416 16.777C-0.442492 15.0204 -0.440062 13.7789 1.3336 12.0126C5.02671 8.3366 8.72953 4.6679 12.4178 0.984622C12.9985 0.401518 13.6229 -0.00908472 14.4611 0.0467961Z" fill="url(#paint0_linear_190_141)"/>
<defs>
<linearGradient id="paint0_linear_190_141" x1="-3.82703" y1="28.4245" x2="84.3042" y2="52.0392" gradientUnits="userSpaceOnUse">
<stop stop-color="#FF0000"/>
<stop offset="0.24" stop-color="#EC0605"/>
<stop offset="0.71" stop-color="#BD1714"/>
<stop offset="1" stop-color="#9E231F"/>
</linearGradient>
</defs>
</svg>
