<svg width="37" height="36" viewBox="0 0 37 36" fill="none" xmlns="http://www.w3.org/2000/svg">
<rect x="0.719727" y="0.5" width="35" height="35" rx="17.5" stroke="white" stroke-opacity="0.3"/>
<path d="M15.4476 17.6807C14.8586 17.6807 14.3526 18.2657 14.3176 19.0287C14.2826 19.7907 14.7976 20.1007 15.3876 20.1007C15.9776 20.1007 16.4156 19.8237 16.4506 19.0607C16.4856 18.2997 16.0356 17.6807 15.4476 17.6807ZM22.1316 19.0287C22.0966 18.2657 21.5906 17.6807 21.0016 17.6807C20.4126 17.6807 19.9626 18.2997 19.9976 19.0607C20.0326 19.8247 20.4736 20.1007 21.0616 20.1007C21.6496 20.1007 22.1666 19.7907 22.1316 19.0287ZM20.4396 21.0197C20.4496 20.9956 20.4538 20.9696 20.4518 20.9436C20.4499 20.9176 20.4418 20.8925 20.4282 20.8702C20.4147 20.848 20.396 20.8293 20.3738 20.8156C20.3517 20.802 20.3266 20.7938 20.3006 20.7917C19.6104 20.7235 18.9172 20.6898 18.2236 20.6907C17.4936 20.6907 16.7936 20.7267 16.1466 20.7917C16.1207 20.7941 16.0957 20.8025 16.0737 20.8163C16.0516 20.8302 16.0331 20.849 16.0197 20.8713C16.0063 20.8936 15.9983 20.9187 15.9964 20.9446C15.9944 20.9706 15.9986 20.9966 16.0086 21.0207C16.191 21.4578 16.4986 21.8312 16.8927 22.0939C17.2869 22.3565 17.75 22.4967 18.2236 22.4967C18.6973 22.4967 19.1603 22.3565 19.5545 22.0939C19.9486 21.8312 20.2562 21.4578 20.4386 21.0207L20.4396 21.0197Z" fill="white"/>
<path fill-rule="evenodd" clip-rule="evenodd" d="M9.21973 18C9.21973 13.029 13.2487 9 18.2197 9C23.1907 9 27.2197 13.029 27.2197 18C27.2197 22.971 23.1907 27 18.2197 27H10.5237C10.4169 27.0001 10.3124 26.9684 10.2236 26.9091C10.1347 26.8498 10.0654 26.7654 10.0245 26.6667C9.98363 26.568 9.97294 26.4594 9.9938 26.3546C10.0147 26.2498 10.0661 26.1535 10.1417 26.078L11.8557 24.364C11.0188 23.5292 10.3551 22.5372 9.90273 21.445C9.45036 20.3529 9.21825 19.1821 9.21973 18ZM21.5097 14.399C21.172 14.3988 20.8443 14.2847 20.5795 14.0751C20.3147 13.8655 20.1284 13.5727 20.0507 13.244C19.628 13.3048 19.2412 13.5159 18.9614 13.8385C18.6815 14.1612 18.5272 14.5739 18.5267 15.001V15.007C19.8587 15.057 21.0767 15.432 22.0417 16.029C22.2755 15.8514 22.544 15.7249 22.8297 15.6574C23.1154 15.59 23.4121 15.5833 23.7007 15.6376C23.9892 15.692 24.2631 15.8062 24.5047 15.973C24.7463 16.1397 24.9503 16.3553 25.1035 16.6058C25.2566 16.8562 25.3556 17.136 25.3939 17.4271C25.4322 17.7182 25.4091 18.0141 25.326 18.2957C25.243 18.5772 25.1017 18.8383 24.9115 19.0619C24.7213 19.2855 24.4863 19.4668 24.2217 19.594C24.1557 22.036 21.4927 24 18.2227 24C14.9527 24 12.2937 22.038 12.2247 19.598C11.9583 19.4721 11.7214 19.2915 11.5293 19.068C11.3372 18.8445 11.1943 18.5831 11.1098 18.3008C11.0253 18.0185 11.0012 17.7215 11.039 17.4293C11.0767 17.137 11.1756 16.8559 11.329 16.6044C11.4825 16.3528 11.6872 16.1363 11.9298 15.969C12.1724 15.8017 12.4474 15.6873 12.7371 15.6332C13.0268 15.5791 13.3246 15.5866 13.6112 15.6551C13.8979 15.7237 14.1668 15.8517 14.4007 16.031C15.3567 15.438 16.5607 15.063 17.8807 15.007V14.999C17.8807 13.753 18.8277 12.724 20.0407 12.594C20.0984 12.3163 20.2336 12.0607 20.4306 11.8568C20.6277 11.6528 20.8785 11.5089 21.154 11.4417C21.4296 11.3745 21.7185 11.3868 21.9873 11.4772C22.2561 11.5675 22.4938 11.7322 22.6728 11.9522C22.8518 12.1721 22.9648 12.4383 22.9987 12.7199C23.0325 13.0014 22.9859 13.2868 22.8641 13.543C22.7424 13.7991 22.5505 14.0155 22.3108 14.167C22.0711 14.3185 21.7933 14.3989 21.5097 14.399Z" fill="white"/>
</svg>
