<svg width="17" height="17" viewBox="0 0 17 17" fill="none" xmlns="http://www.w3.org/2000/svg">
<path d="M14.8604 7C14.8604 7.13261 14.8077 7.25979 14.714 7.35355C14.6202 7.44732 14.493 7.5 14.3604 7.5C14.2278 7.5 14.1006 7.44732 14.0068 7.35355C13.9131 7.25979 13.8604 7.13261 13.8604 7V4.2075L9.71472 8.35375C9.6209 8.44757 9.49366 8.50028 9.36097 8.50028C9.22829 8.50028 9.10105 8.44757 9.00723 8.35375C8.9134 8.25993 8.8607 8.13268 8.8607 8C8.8607 7.86732 8.9134 7.74007 9.00723 7.64625L13.1529 3.5H10.3604C10.2277 3.5 10.1006 3.44732 10.0068 3.35355C9.91303 3.25979 9.86035 3.13261 9.86035 3C9.86035 2.86739 9.91303 2.74021 10.0068 2.64645C10.1006 2.55268 10.2277 2.5 10.3604 2.5H14.3604C14.493 2.5 14.6202 2.55268 14.714 2.64645C14.8077 2.74021 14.8604 2.86739 14.8604 3V7ZM12.3604 8.5C12.2278 8.5 12.1006 8.55268 12.0068 8.64645C11.9131 8.74021 11.8604 8.86739 11.8604 9V13.5H3.86035V5.5H8.36035C8.49296 5.5 8.62014 5.44732 8.7139 5.35355C8.80767 5.25979 8.86035 5.13261 8.86035 5C8.86035 4.86739 8.80767 4.74021 8.7139 4.64645C8.62014 4.55268 8.49296 4.5 8.36035 4.5H3.86035C3.59513 4.5 3.34078 4.60536 3.15324 4.79289C2.96571 4.98043 2.86035 5.23478 2.86035 5.5V13.5C2.86035 13.7652 2.96571 14.0196 3.15324 14.2071C3.34078 14.3946 3.59513 14.5 3.86035 14.5H11.8604C12.1256 14.5 12.38 14.3946 12.5675 14.2071C12.755 14.0196 12.8604 13.7652 12.8604 13.5V9C12.8604 8.86739 12.8077 8.74021 12.714 8.64645C12.6202 8.55268 12.493 8.5 12.3604 8.5Z" fill="white"/>
</svg>
