<svg width="37" height="36" viewBox="0 0 37 36" fill="none" xmlns="http://www.w3.org/2000/svg">
<rect x="0.719727" y="0.5" width="35" height="35" rx="17.5" stroke="white" stroke-opacity="0.3"/>
<path d="M18.2197 13.8462C17.389 13.8462 16.6274 14.1231 15.9351 14.5385C15.2428 14.9538 14.689 15.6462 14.412 16.4077C14.0659 17.1692 13.9966 18 14.1351 18.8308C14.2736 19.6615 14.689 20.3538 15.2428 20.9769C15.7966 21.5308 16.5582 21.9462 17.389 22.0846C18.2197 22.2231 19.0505 22.1538 19.812 21.8769C20.5736 21.5308 21.1966 21.0462 21.6813 20.3538C22.1659 19.6615 22.3736 18.9 22.3736 18.0692C22.3736 16.9615 21.9582 15.9231 21.1274 15.1615C20.3659 14.2615 19.3274 13.8462 18.2197 13.8462ZM18.2197 20.7692C17.6659 20.7692 17.112 20.6308 16.6967 20.2846C16.212 20.0077 15.8659 19.5231 15.6582 19.0385C15.4505 18.5538 15.3813 18 15.5197 17.4462C15.6582 16.8923 15.8659 16.4077 16.2813 16.0615C16.6966 15.6462 17.1813 15.4385 17.6659 15.3C18.2197 15.1615 18.7736 15.2308 19.2582 15.4385C19.7428 15.6462 20.2274 15.9923 20.5043 16.4769C20.7813 16.9615 20.989 17.4462 20.989 18C20.989 18.7615 20.712 19.4538 20.1582 19.9385C19.6736 20.4923 18.9813 20.7692 18.2197 20.7692ZM22.3736 9H14.0659C12.7505 9 11.5736 9.48462 10.6736 10.4538C9.70434 11.3538 9.21973 12.5308 9.21973 13.8462V22.1538C9.21973 23.4692 9.70434 24.6462 10.6736 25.5462C11.5736 26.5154 12.7505 27 14.0659 27H22.3736C23.689 27 24.8659 26.5154 25.7659 25.5462C26.6659 24.6462 27.2197 23.4 27.2197 22.1538V13.8462C27.2197 12.5308 26.7351 11.3538 25.7659 10.4538C24.8659 9.48462 23.689 9 22.3736 9ZM25.8351 22.1538C25.8351 23.0538 25.489 23.9538 24.7966 24.5769C24.1736 25.2692 23.2736 25.6154 22.3736 25.6154H14.0659C13.1659 25.6154 12.2659 25.2692 11.6428 24.5769C10.9505 23.9538 10.6043 23.0538 10.6043 22.1538V13.8462C10.6043 12.9462 10.9505 12.0462 11.6428 11.4231C12.2659 10.7308 13.1659 10.3846 14.0659 10.3846H22.3736C23.2736 10.3846 24.1736 10.7308 24.7966 11.4231C25.489 12.0462 25.8351 12.9462 25.8351 13.8462V22.1538ZM23.7582 13.5C23.7582 13.7077 23.689 13.9154 23.5505 14.0538C23.412 14.1923 23.2736 14.3308 23.0659 14.4692C22.9274 14.5385 22.7197 14.5385 22.512 14.5385C22.3043 14.4692 22.0967 14.4 21.9582 14.2615C21.8197 14.1231 21.6813 13.9154 21.6813 13.7077C21.612 13.5 21.6813 13.2923 21.7505 13.0846C21.8197 12.8769 21.9582 12.7385 22.1659 12.6C22.3043 12.5308 22.512 12.4615 22.7197 12.4615C22.9966 12.4615 23.2736 12.6 23.4813 12.7385C23.6197 12.9462 23.7582 13.2231 23.7582 13.5Z" fill="white"/>
</svg>
