<svg width="11" height="19" viewBox="0 0 11 19" fill="none" xmlns="http://www.w3.org/2000/svg">
<path d="M8.87824 0.646869L0.781369 8.95312C0.63916 9.09902 0.55957 9.29469 0.55957 9.49843C0.55957 9.70217 0.63916 9.89785 0.781369 10.0437L8.87824 18.3531C8.94449 18.4212 9.02369 18.4752 9.11118 18.5122C9.19866 18.5491 9.29266 18.5681 9.38762 18.5681C9.48258 18.5681 9.57658 18.5491 9.66406 18.5122C9.75155 18.4752 9.83075 18.4212 9.89699 18.3531C10.0333 18.2136 10.1096 18.0263 10.1096 17.8312C10.1096 17.6362 10.0333 17.4489 9.89699 17.3094L2.28293 9.49843L9.89699 1.68906C10.0328 1.54961 10.1088 1.36263 10.1088 1.16796C10.1088 0.973294 10.0328 0.78632 9.89699 0.646869C9.83075 0.578833 9.75155 0.524756 9.66406 0.487832C9.57658 0.450908 9.48258 0.431885 9.38762 0.431885C9.29266 0.431885 9.19866 0.450908 9.11118 0.487832C9.02369 0.524756 8.94449 0.578833 8.87824 0.646869Z" fill="black"/>
</svg>
