<svg width="37" height="36" viewBox="0 0 37 36" fill="none" xmlns="http://www.w3.org/2000/svg">
<rect x="0.719727" y="0.5" width="35" height="35" rx="17.5" stroke="white" stroke-opacity="0.3"/>
<path fill-rule="evenodd" clip-rule="evenodd" d="M9.53957 15.0205H13.3596V26.5105H9.53957V15.0205ZM11.4696 9.48047C10.1596 9.48047 9.30957 10.3405 9.30957 11.4705C9.30957 12.5705 10.1396 13.4605 11.4196 13.4605H11.4396C12.7696 13.4605 13.5996 12.5805 13.5996 11.4705C13.5796 10.3405 12.7796 9.48047 11.4696 9.48047ZM22.7296 14.7505C20.6996 14.7505 19.7896 15.8705 19.2896 16.6505V16.6905H19.2596C19.2696 16.6805 19.2796 16.6605 19.2896 16.6505V15.0205H15.4696C15.5196 16.1005 15.4696 26.5105 15.4696 26.5105H19.2896V20.1005C19.2896 19.7605 19.3096 19.4105 19.4196 19.1705C19.6996 18.4805 20.3196 17.7705 21.3796 17.7705C22.7596 17.7705 23.3196 18.8205 23.3196 20.3705V26.5205H27.1396V19.9305C27.1296 16.4005 25.2496 14.7505 22.7296 14.7505Z" fill="white"/>
</svg>
