<svg width="30" height="31" viewBox="0 0 30 31" fill="none" xmlns="http://www.w3.org/2000/svg">
<g clip-path="url(#clip0_68_83)">
<path d="M14.8999 0.708984C23.0574 0.708984 29.6583 7.30988 29.6583 15.4673C29.6583 23.6248 23.0574 30.2257 14.8999 30.2257C6.7425 30.2257 0.141602 23.6248 0.141602 15.4673C0.141602 7.30988 6.7425 0.708984 14.8999 0.708984ZM14.8999 28.4097C22.0197 28.4097 27.8135 22.5871 27.8135 15.4673C27.8135 8.34757 22.0197 2.55378 14.8999 2.55378C7.78019 2.55378 1.98639 8.34757 1.98639 15.4673C1.98639 22.5871 7.78019 28.4097 14.8999 28.4097ZM13.8911 16.3897H8.44316C7.92432 16.3897 7.52077 15.9862 7.52077 15.4673C7.52077 14.9485 7.92432 14.5449 8.44316 14.5449H21.3567C21.8756 14.5449 22.2791 14.9485 22.2791 15.4673C22.2791 15.9862 21.8756 16.3897 21.3567 16.3897H13.8911Z" fill="#0000FF"/>
</g>
<defs>
<clipPath id="clip0_68_83">
<rect width="29.5167" height="29.5167" fill="white" transform="translate(0.141602 0.708984)"/>
</clipPath>
</defs>
</svg>
