<svg width="30" height="30" viewBox="0 0 30 30" fill="none" xmlns="http://www.w3.org/2000/svg">
<path d="M14.9002 0.825195C6.85527 0.825195 0.333496 7.34696 0.333496 15.3919C0.333496 23.4372 6.85527 29.9585 14.9002 29.9585C22.9455 29.9585 29.4668 23.4372 29.4668 15.3919C29.4668 7.34696 22.9455 0.825195 14.9002 0.825195ZM14.9002 28.1664C7.8722 28.1664 2.15433 22.4198 2.15433 15.3918C2.15433 8.36384 7.8722 2.64597 14.9002 2.64597C21.9281 2.64597 27.646 8.36387 27.646 15.3918C27.646 22.4197 21.9281 28.1664 14.9002 28.1664ZM21.2731 14.4814H15.8106V9.01895C15.8106 8.5164 15.4027 8.10853 14.9002 8.10853C14.3976 8.10853 13.9897 8.5164 13.9897 9.01895V14.4814H8.52725C8.0247 14.4814 7.61683 14.8893 7.61683 15.3919C7.61683 15.8944 8.0247 16.3023 8.52725 16.3023H13.9897V21.7648C13.9897 22.2673 14.3976 22.6752 14.9002 22.6752C15.4027 22.6752 15.8106 22.2673 15.8106 21.7648V16.3023H21.2731C21.7756 16.3023 22.1835 15.8944 22.1835 15.3919C22.1835 14.8893 21.7756 14.4814 21.2731 14.4814Z" fill="#0000FF"/>
</svg>
