<svg width="16" height="15" viewBox="0 0 16 15" fill="none" xmlns="http://www.w3.org/2000/svg">
<path d="M7.13775 0.847675C7.43468 -0.0661726 8.72753 -0.0661726 9.02446 0.847675L10.0854 4.11281C10.2182 4.52149 10.599 4.79819 11.0287 4.79819H14.4619C15.4228 4.79819 15.8223 6.02777 15.0449 6.59256L12.2674 8.61052C11.9198 8.8631 11.7743 9.31081 11.9071 9.71949L12.968 12.9846C13.2649 13.8985 12.219 14.6584 11.4416 14.0936L8.66413 12.0756C8.31648 11.8231 7.84573 11.8231 7.49808 12.0756L4.72059 14.0936C3.94323 14.6584 2.89729 13.8985 3.19422 12.9846L4.25512 9.71949C4.38791 9.31081 4.24244 8.8631 3.89479 8.61052L1.11731 6.59256C0.339942 6.02777 0.739455 4.79819 1.70033 4.79819H5.13349C5.56321 4.79819 5.94406 4.52149 6.07685 4.11281L7.13775 0.847675Z" fill="black"/>
</svg>
