<svg width="33" height="26" viewBox="0 0 33 26" fill="none" xmlns="http://www.w3.org/2000/svg">
<path d="M9.30142 1.64355C4.21569 4.98791 0.786621 10.9605 0.786621 16.575C0.786621 21.2331 3.03408 25.4137 7.88269 25.4137C11.3118 25.4137 14.3863 22.9056 14.3863 18.9637C14.3863 15.3806 11.7852 12.7524 8.35533 12.7524C7.29108 12.7524 6.58131 12.0355 6.58131 10.7218C6.58131 8.92984 8.35533 5.46613 10.7202 3.31533L9.30142 1.64355ZM27.1581 1.64355C21.9551 4.98791 18.6441 10.9605 18.6441 16.575C18.6441 21.2331 20.8908 25.4137 25.7394 25.4137C29.1685 25.4137 32.2431 22.9056 32.2431 18.9637C32.2431 15.3806 29.6419 12.7524 26.2121 12.7524C25.1478 12.7524 24.3199 12.0355 24.3199 10.7218C24.3199 8.92984 26.2121 5.46613 28.5777 3.31533L27.1581 1.64355Z" fill="#151418"/>
</svg>
