<svg width="37" height="36" viewBox="0 0 37 36" fill="none" xmlns="http://www.w3.org/2000/svg">
<rect x="0.719727" y="0.5" width="35" height="35" rx="17.5" stroke="white" stroke-opacity="0.3"/>
<path d="M20.2197 18.001L16.7197 20.001V16.001L20.2197 18.001Z" fill="white" stroke="white" stroke-width="1.5" stroke-linecap="round" stroke-linejoin="round"/>
<path d="M8.21973 18.7084V17.2934C8.21973 14.3984 8.21973 12.9504 9.12473 12.0194C10.0297 11.0884 11.4557 11.0474 14.3067 10.9674C15.6577 10.9294 17.0377 10.9014 18.2187 10.9014C19.3997 10.9014 20.7797 10.9284 22.1307 10.9674C24.9817 11.0484 26.4077 11.0884 27.3127 12.0194C28.2177 12.9504 28.2177 14.3984 28.2177 17.2934V18.7084C28.2177 21.6034 28.2177 23.0514 27.3127 23.9824C26.4067 24.9144 24.9817 24.9544 22.1307 25.0344C20.7797 25.0724 19.3997 25.1004 18.2187 25.1004C17.0377 25.1004 15.6577 25.0734 14.3067 25.0344C11.4557 24.9534 10.0297 24.9134 9.12473 23.9824C8.21973 23.0514 8.21973 21.6034 8.21973 18.7084Z" stroke="white" stroke-width="1.5"/>
</svg>
